<svg xmlns="http://www.w3.org/2000/svg" width="43.75" height="50" viewBox="0 0 43.75 50"><defs><style>.a{fill:#4b92db;}</style></defs><path class="a" d="M10.937,42.187h3.125a3.128,3.128,0,0,0,3.125-3.125V35.938a3.128,3.128,0,0,0-3.125-3.125H10.937a3.128,3.128,0,0,0-3.125,3.125v3.125A3.128,3.128,0,0,0,10.937,42.187Zm0-6.25h3.125v3.125H10.937Zm0-18.75h3.125a3.128,3.128,0,0,0,3.125-3.125V10.937a3.128,3.128,0,0,0-3.125-3.125H10.937a3.128,3.128,0,0,0-3.125,3.125v3.125A3.128,3.128,0,0,0,10.937,17.188Zm0-6.25h3.125v3.125H10.937ZM40.625,0H3.125A3.128,3.128,0,0,0,0,3.125v43.75A3.128,3.128,0,0,0,3.125,50h37.5a3.128,3.128,0,0,0,3.125-3.125V3.125A3.128,3.128,0,0,0,40.625,0Zm0,46.875H3.125V3.125h37.5ZM21.094,14.062h12.5a.784.784,0,0,0,.781-.781V11.719a.784.784,0,0,0-.781-.781h-12.5a.784.784,0,0,0-.781.781v1.563A.784.784,0,0,0,21.094,14.062Zm0,12.5h12.5a.784.784,0,0,0,.781-.781V24.219a.784.784,0,0,0-.781-.781h-12.5a.784.784,0,0,0-.781.781v1.563A.784.784,0,0,0,21.094,26.562Zm0,12.5h12.5a.784.784,0,0,0,.781-.781V36.719a.784.784,0,0,0-.781-.781h-12.5a.784.784,0,0,0-.781.781v1.563A.784.784,0,0,0,21.094,39.062ZM11.582,27.969a.525.525,0,0,0,.742,0l6.27-6.211a.525.525,0,0,0,0-.742l-1.23-1.24a.525.525,0,0,0-.742,0l-4.648,4.609L9.961,22.344a.525.525,0,0,0-.742,0l-1.24,1.23a.525.525,0,0,0,0,.742l3.6,3.652Z"/></svg>