<svg xmlns="http://www.w3.org/2000/svg" width="164" height="32.194" viewBox="0 0 164 32.194"><defs><style>.a{fill:#fff;}</style></defs><g transform="translate(0)"><path class="a" d="M91.082,13.59V10.818H104.84V7.359H91.082V4.675h14.562V.7H85.48V17.491h20.526v-3.9Z" transform="translate(-58.249 -0.48)"/><path class="a" d="M18.13.7V6.6H6.091V.7H.495V17.49h5.6v-6.4H18.13v6.4H23.7V.7Z" transform="translate(-0.337 -0.48)"/><path class="a" d="M175.629,9.1h-9.415V4.855h9.415c2.786,0,2.67,4.245,0,4.245m4.693,1.789a3.437,3.437,0,0,0,2.735-3.122c.007-.994,0-2.355,0-3.319a3.989,3.989,0,0,0-4.341-3.74h-18.1V17.494h5.6V13.234c1.285,0,8.649-.014,9.473-.014a1.709,1.709,0,0,1,1.661,1.486v2.786h5.712V14.138a3.333,3.333,0,0,0-2.738-3.249" transform="translate(-109.451 -0.482)"/><path class="a" d="M248.8,13.454,261.89,4.674h-.036V.7H240.647V4.7h13.03l-13.364,8.758V17.49h21.856V13.454Z" transform="translate(-163.758 -0.48)"/><path class="a" d="M325.139,17.49h-5.578V.7h5.578V17.49Z" transform="translate(-217.761 -0.48)"/><path class="a" d="M369.709.7V12.878L359.095.7h-8.729V17.49h5.6V5.266L366.438,17.49h8.849V.7Z" transform="translate(-238.753 -0.48)"/><path class="a" d="M445.594,0h11.484c5,0,6.065,2.349,6.065,4.21V6.043H457.7s0-.139,0-.582-.446-1.353-1.172-1.353h-9.449c-1.055,0-1.833,1.053-1.833,2.438v4.735c0,.8.714,1.885,2.477,1.887,1.091,0,7.359.02,8.163.02s1.77-.719,1.77-1.242V10.879l-7.012-.02V7.293h12.711V12.9c0,3.982-3.861,4.261-6.283,4.261H445.251c-3.056,0-5.943-1.957-5.943-5.762V5.822c0-4.652,2.848-5.822,6.286-5.822" transform="translate(-299.361)"/><path class="a" d="M7.449,68.858h3.233V67.437c0-1.691-1.386-2.7-3.308-2.724-.992-.013-2.881-.025-3.612.023A3.751,3.751,0,0,0,0,68.709c0,1.88-.005,1.628,0,2.872.015,3.939,1.568,4.552,4.266,4.555,0,0,1.568-.014,2.316-.014,3.688,0,4.346-2.019,4.222-4.36-1.646,0-3.3,0-3.3,0,0,.533.1,1.805-1.545,1.805H5.149c-.282,0-1.78.089-1.78-1.984V68.946a1.513,1.513,0,0,1,1.573-1.553H6.022a1.364,1.364,0,0,1,1.426,1.465" transform="translate(0 -44.089)"/><path class="a" d="M410.706,71.751h.005V69.625H405.42v2.125h2.021c0,.546.073,1.787-1.547,1.787h-.813a1.782,1.782,0,0,1-1.96-1.874c0-2.079-.019-1.737,0-2.644a1.808,1.808,0,0,1,1.781-1.869c.344-.007.89,0,1.083,0,1.253.008,1.392.751,1.409,1.193h3.235s-.013-.225-.013-.952c0-1.695-1.387-2.731-3.31-2.731-.995,0-2.886-.005-3.617.044a3.736,3.736,0,0,0-3.759,3.964c0,1.885,0,1.633,0,2.879.015,3.95,1.569,4.564,4.269,4.568,0,0,1.524.035,2.317-.015.723-.046,4.485.135,4.19-4.353" transform="translate(-272.526 -44.062)"/><path class="a" d="M329.446,67.25V64.809h-8.821V76.034h8.821v-2.6h-5.638v-2h5.135V69.349h-5.135v-2.1Z" transform="translate(-218.486 -44.163)"/><path class="a" d="M494.388,67.25V64.809h-8.821V76.034h8.821v-2.6H488.75v-2h5.135V69.349H488.75v-2.1Z" transform="translate(-330.884 -44.163)"/><path class="a" d="M247.928,73.431v-8.6h-3.2V76.07l8.283,0V73.431Z" transform="translate(-166.768 -44.176)"/><path class="a" d="M172.259,73.431v-8.6h-3.2V76.07l8.283,0V73.431Z" transform="translate(-115.205 -44.176)"/><path class="a" d="M86.217,71.628c.007,1.079,1.006,1.615,2.423,1.6,1.247-.012,2.274-.505,2.267-1.6-.006-.991,0-2.38,0-2.592.021-1.384-.723-2.055-2.338-2.055-1.844,0-2.373.737-2.352,2.168,0,0-.009,1.19,0,2.479m2.026-7.41c2.036-.064,5.578.464,5.942,3.217a21.373,21.373,0,0,1,.021,5.32c-.083,1.108-1.284,3.179-4.817,3.179-.339,0-1.227.016-1.628.016-2.8,0-4.794-1.362-4.9-3.783a35.489,35.489,0,0,1,.032-4.532c.108-1.355,1.51-3.3,5.352-3.416" transform="translate(-56.424 -43.758)"/></g></svg>